<svg width="260" height="97" viewBox="0 0 260 97" fill="none" xmlns="http://www.w3.org/2000/svg">
<path d="M114.025 56.7C114.025 61.35 112.25 65.25 108.7 68.4C105.2 71.55 100.65 73.125 95.05 73.125C90.7 73.125 86.65 72.075 82.9 69.975C79.15 67.875 77.275 65.825 77.275 63.825C77.275 62.925 77.575 62.175 78.175 61.575C78.775 60.975 79.525 60.675 80.425 60.675C81.375 60.675 82.325 61 83.275 61.65C84.225 62.25 85.1 62.925 85.9 63.675C86.7 64.375 87.9 65.05 89.5 65.7C91.15 66.3 93 66.6 95.05 66.6C98.45 66.6 101.25 65.725 103.45 63.975C105.7 62.225 106.825 59.8 106.825 56.7C106.825 54.65 105.875 52.7 103.975 50.85C102.075 49 99.775 47.325 97.075 45.825C94.375 44.325 91.675 42.8 88.975 41.25C86.275 39.65 83.975 37.725 82.075 35.475C80.175 33.175 79.225 30.7 79.225 28.05C79.225 24.4 80.825 21.25 84.025 18.6C87.225 15.95 91 14.625 95.35 14.625C99.7 14.625 103.4 15.375 106.45 16.875C109.5 18.325 111.025 20 111.025 21.9C111.025 22.85 110.725 23.6 110.125 24.15C109.525 24.7 108.725 24.975 107.725 24.975C106.725 24.975 105.75 24.65 104.8 24C103.85 23.35 102.675 22.7 101.275 22.05C99.875 21.4 98 21.075 95.65 21.075C93.3 21.075 91.175 21.725 89.275 23.025C87.375 24.325 86.425 25.925 86.425 27.825C86.425 29.725 87.375 31.5 89.275 33.15C91.175 34.75 93.475 36.3 96.175 37.8C98.875 39.3 101.575 40.875 104.275 42.525C106.975 44.175 109.275 46.225 111.175 48.675C113.075 51.125 114.025 53.8 114.025 56.7ZM124.558 72.075C123.458 72.075 122.533 71.725 121.783 71.025C121.083 70.275 120.733 69.35 120.733 68.25V34.8C120.733 33.65 121.083 32.725 121.783 32.025C122.533 31.325 123.458 30.975 124.558 30.975C125.708 30.975 126.633 31.325 127.333 32.025C128.033 32.725 128.383 33.65 128.383 34.8V35.625C129.933 34.075 131.808 32.85 134.008 31.95C136.208 31.05 138.583 30.6 141.133 30.6C144.583 30.6 147.658 31.35 150.358 32.85C153.108 34.3 155.258 36.45 156.808 39.3C158.408 42.15 159.208 45.65 159.208 49.8V68.25C159.208 69.35 158.833 70.275 158.083 71.025C157.383 71.725 156.483 72.075 155.383 72.075C154.283 72.075 153.358 71.725 152.608 71.025C151.908 70.275 151.558 69.35 151.558 68.25V49.8C151.558 45.55 150.408 42.45 148.108 40.5C145.858 38.5 143.033 37.5 139.633 37.5C137.533 37.5 135.633 37.925 133.933 38.775C132.233 39.625 130.883 40.775 129.883 42.225C128.883 43.625 128.383 45.25 128.383 47.1V68.25C128.383 69.35 128.033 70.275 127.333 71.025C126.633 71.725 125.708 72.075 124.558 72.075ZM124.558 57.075C123.458 57.075 122.533 56.725 121.783 56.025C121.083 55.275 120.733 54.35 120.733 53.25V17.25C120.733 16.1 121.083 15.175 121.783 14.475C122.533 13.775 123.458 13.425 124.558 13.425C125.708 13.425 126.633 13.775 127.333 14.475C128.033 15.175 128.383 16.1 128.383 17.25V53.25C128.383 54.35 128.033 55.275 127.333 56.025C126.633 56.725 125.708 57.075 124.558 57.075ZM184.53 72.3C180.88 72.3 177.605 71.4 174.705 69.6C171.805 67.75 169.505 65.275 167.805 62.175C166.155 59.025 165.33 55.475 165.33 51.525C165.33 47.575 166.23 44.025 168.03 40.875C169.88 37.725 172.355 35.25 175.455 33.45C178.605 31.6 182.13 30.675 186.03 30.675C189.93 30.675 193.43 31.6 196.53 33.45C199.63 35.25 202.08 37.725 203.88 40.875C205.73 44.025 206.655 47.575 206.655 51.525V68.25C206.655 69.35 206.28 70.275 205.53 71.025C204.83 71.725 203.93 72.075 202.83 72.075C201.73 72.075 200.805 71.725 200.055 71.025C199.355 70.275 199.005 69.35 199.005 68.25V65.475C197.255 67.575 195.13 69.25 192.63 70.5C190.18 71.7 187.48 72.3 184.53 72.3ZM186.03 65.55C188.58 65.55 190.855 64.95 192.855 63.75C194.855 62.5 196.43 60.825 197.58 58.725C198.73 56.575 199.305 54.175 199.305 51.525C199.305 48.825 198.73 46.425 197.58 44.325C196.43 42.175 194.855 40.5 192.855 39.3C190.855 38.05 188.58 37.425 186.03 37.425C183.53 37.425 181.255 38.05 179.205 39.3C177.205 40.5 175.605 42.175 174.405 44.325C173.255 46.425 172.68 48.825 172.68 51.525C172.68 54.175 173.255 56.575 174.405 58.725C175.605 60.825 177.205 62.5 179.205 63.75C181.255 64.95 183.53 65.55 186.03 65.55ZM217.365 89.55C216.265 89.55 215.34 89.175 214.59 88.425C213.89 87.725 213.54 86.825 213.54 85.725V51.525C213.59 47.575 214.515 44.025 216.315 40.875C218.115 37.725 220.565 35.25 223.665 33.45C226.765 31.6 230.265 30.675 234.165 30.675C238.115 30.675 241.64 31.6 244.74 33.45C247.84 35.25 250.29 37.725 252.09 40.875C253.94 44.025 254.865 47.575 254.865 51.525C254.865 55.475 254.015 59.025 252.315 62.175C250.665 65.275 248.39 67.75 245.49 69.6C242.59 71.4 239.315 72.3 235.665 72.3C232.715 72.3 229.99 71.7 227.49 70.5C225.04 69.25 222.94 67.575 221.19 65.475V85.725C221.19 86.825 220.84 87.725 220.14 88.425C219.44 89.175 218.515 89.55 217.365 89.55ZM234.165 65.55C236.715 65.55 238.99 64.95 240.99 63.75C242.99 62.5 244.565 60.825 245.715 58.725C246.915 56.575 247.515 54.175 247.515 51.525C247.515 48.825 246.915 46.425 245.715 44.325C244.565 42.175 242.99 40.5 240.99 39.3C238.99 38.05 236.715 37.425 234.165 37.425C231.665 37.425 229.39 38.05 227.34 39.3C225.34 40.5 223.765 42.175 222.615 44.325C221.465 46.425 220.89 48.825 220.89 51.525C220.89 54.175 221.465 56.575 222.615 58.725C223.765 60.825 225.34 62.5 227.34 63.75C229.39 64.95 231.665 65.55 234.165 65.55Z" fill="#2A3A52"/>
<rect x="52" y="22.7273" width="9" height="18.1818" rx="4.5" fill="#F22859"/>
<path d="M52 48.8182C52 46.3329 54.0147 44.3182 56.5 44.3182V44.3182C58.9853 44.3182 61 46.3329 61 48.8182V70.5C61 72.9853 58.9853 75 56.5 75V75C54.0147 75 52 72.9853 52 70.5V48.8182Z" fill="#7362AD"/>
<rect x="13" y="54.5455" width="9" height="28.4091" rx="4.5" fill="#4278CD"/>
<rect x="39" y="35.2273" width="9" height="44.3182" rx="4.5" fill="#6966B3"/>
<rect x="13" y="12.5" width="9" height="38.6364" rx="4.5" fill="#B34582"/>
<rect x="39" y="13.6364" width="9" height="18.1818" rx="4.5" fill="#D5356C"/>
<rect x="26" y="46.5909" width="9" height="40.9091" rx="4.5" fill="#5171C4"/>
<rect x="26" y="10.2273" width="9" height="32.9545" rx="4.5" fill="#C73C76"/>
<rect x="9" y="75" width="9" height="18.1818" rx="4.5" transform="rotate(-180 9 75)" fill="#2684DF"/>
<path d="M9 48.9091C9 51.3944 6.98528 53.4091 4.5 53.4091V53.4091C2.01472 53.4091 0 51.3944 0 48.9091L0 27.2273C0 24.742 2.01472 22.7273 4.5 22.7273V22.7273C6.98528 22.7273 9 24.742 9 27.2273L9 48.9091Z" fill="#9A5093"/>
<path d="M214 60H222V87C222 88.6569 220.657 90 219 90H218C215.791 90 214 88.2091 214 86V60Z" fill="#2A3A52"/>
</svg>
